<svg width="1440" height="64" viewBox="0 0 1440 64" fill="none" xmlns="http://www.w3.org/2000/svg">
<path d="M134.409 38V26.3636H135.818V31.5455H142.023V26.3636H143.432V38H142.023V32.7955H135.818V38H134.409ZM149.416 38.1818C148.629 38.1818 147.937 37.9943 147.343 37.6193C146.752 37.2443 146.29 36.7197 145.956 36.0455C145.627 35.3712 145.462 34.5833 145.462 33.6818C145.462 32.7727 145.627 31.9792 145.956 31.3011C146.29 30.6231 146.752 30.0966 147.343 29.7216C147.937 29.3466 148.629 29.1591 149.416 29.1591C150.204 29.1591 150.894 29.3466 151.485 29.7216C152.079 30.0966 152.541 30.6231 152.871 31.3011C153.204 31.9792 153.371 32.7727 153.371 33.6818C153.371 34.5833 153.204 35.3712 152.871 36.0455C152.541 36.7197 152.079 37.2443 151.485 37.6193C150.894 37.9943 150.204 38.1818 149.416 38.1818ZM149.416 36.9773C150.015 36.9773 150.507 36.8239 150.894 36.517C151.28 36.2102 151.566 35.8068 151.752 35.3068C151.937 34.8068 152.03 34.2652 152.03 33.6818C152.03 33.0985 151.937 32.5549 151.752 32.0511C151.566 31.5473 151.28 31.1402 150.894 30.8295C150.507 30.5189 150.015 30.3636 149.416 30.3636C148.818 30.3636 148.326 30.5189 147.939 30.8295C147.553 31.1402 147.267 31.5473 147.081 32.0511C146.896 32.5549 146.803 33.0985 146.803 33.6818C146.803 34.2652 146.896 34.8068 147.081 35.3068C147.267 35.8068 147.553 36.2102 147.939 36.517C148.326 36.8239 148.818 36.9773 149.416 36.9773ZM155.218 38V29.2727H156.513V30.6364H156.627C156.809 30.1705 157.102 29.8087 157.508 29.5511C157.913 29.2898 158.4 29.1591 158.968 29.1591C159.544 29.1591 160.023 29.2898 160.405 29.5511C160.792 29.8087 161.093 30.1705 161.309 30.6364H161.4C161.623 30.1856 161.958 29.8277 162.405 29.5625C162.852 29.2936 163.388 29.1591 164.013 29.1591C164.794 29.1591 165.432 29.4034 165.928 29.892C166.424 30.3769 166.672 31.1326 166.672 32.1591V38H165.332V32.1591C165.332 31.5152 165.155 31.0549 164.803 30.7784C164.451 30.5019 164.036 30.3636 163.559 30.3636C162.945 30.3636 162.47 30.5492 162.133 30.9205C161.796 31.2879 161.627 31.7538 161.627 32.3182V38H160.263V32.0227C160.263 31.5265 160.102 31.1269 159.78 30.8239C159.458 30.517 159.044 30.3636 158.536 30.3636C158.188 30.3636 157.862 30.4564 157.559 30.642C157.26 30.8277 157.017 31.0852 156.832 31.4148C156.65 31.7405 156.559 32.1174 156.559 32.5455V38H155.218ZM172.583 38.1818C171.742 38.1818 171.017 37.9962 170.407 37.625C169.801 37.25 169.333 36.7273 169.004 36.0568C168.678 35.3826 168.515 34.5985 168.515 33.7045C168.515 32.8106 168.678 32.0227 169.004 31.3409C169.333 30.6553 169.792 30.1212 170.379 29.7386C170.97 29.3523 171.659 29.1591 172.447 29.1591C172.901 29.1591 173.35 29.2348 173.793 29.3864C174.237 29.5379 174.64 29.7841 175.004 30.125C175.367 30.4621 175.657 30.9091 175.873 31.4659C176.089 32.0227 176.197 32.7083 176.197 33.5227V34.0909H169.47V32.9318H174.833C174.833 32.4394 174.735 32 174.538 31.6136C174.345 31.2273 174.068 30.9223 173.708 30.6989C173.352 30.4754 172.932 30.3636 172.447 30.3636C171.913 30.3636 171.451 30.4962 171.061 30.7614C170.674 31.0227 170.377 31.3636 170.168 31.7841C169.96 32.2045 169.856 32.6553 169.856 33.1364V33.9091C169.856 34.5682 169.97 35.1269 170.197 35.5852C170.428 36.0398 170.748 36.3864 171.157 36.625C171.566 36.8598 172.042 36.9773 172.583 36.9773C172.936 36.9773 173.254 36.928 173.538 36.8295C173.826 36.7273 174.074 36.5758 174.282 36.375C174.49 36.1705 174.651 35.9167 174.765 35.6136L176.061 35.9773C175.924 36.4167 175.695 36.803 175.373 37.1364C175.051 37.4659 174.653 37.7235 174.18 37.9091C173.706 38.0909 173.174 38.1818 172.583 38.1818Z" fill="#8B96A5"/>
<path d="M214.773 30H213.364C213.28 29.5947 213.134 29.2386 212.926 28.9318C212.722 28.625 212.472 28.3674 212.176 28.1591C211.884 27.947 211.561 27.7879 211.205 27.6818C210.848 27.5758 210.477 27.5227 210.091 27.5227C209.386 27.5227 208.748 27.7008 208.176 28.0568C207.608 28.4129 207.155 28.9375 206.818 29.6307C206.485 30.3239 206.318 31.1742 206.318 32.1818C206.318 33.1894 206.485 34.0398 206.818 34.733C207.155 35.4261 207.608 35.9508 208.176 36.3068C208.748 36.6629 209.386 36.8409 210.091 36.8409C210.477 36.8409 210.848 36.7879 211.205 36.6818C211.561 36.5758 211.884 36.4186 212.176 36.2102C212.472 35.9981 212.722 35.7386 212.926 35.4318C213.134 35.1212 213.28 34.7652 213.364 34.3636H214.773C214.667 34.9583 214.473 35.4905 214.193 35.9602C213.913 36.4299 213.564 36.8295 213.148 37.1591C212.731 37.4848 212.263 37.733 211.744 37.9034C211.229 38.0739 210.678 38.1591 210.091 38.1591C209.098 38.1591 208.216 37.9167 207.443 37.4318C206.67 36.947 206.063 36.2576 205.619 35.3636C205.176 34.4697 204.955 33.4091 204.955 32.1818C204.955 30.9545 205.176 29.8939 205.619 29C206.063 28.1061 206.67 27.4167 207.443 26.9318C208.216 26.447 209.098 26.2045 210.091 26.2045C210.678 26.2045 211.229 26.2898 211.744 26.4602C212.263 26.6307 212.731 26.8807 213.148 27.2102C213.564 27.536 213.913 27.9337 214.193 28.4034C214.473 28.8693 214.667 29.4015 214.773 30ZM218.009 26.3636V38H216.668V26.3636H218.009ZM223.81 38.1818C223.022 38.1818 222.331 37.9943 221.736 37.6193C221.145 37.2443 220.683 36.7197 220.35 36.0455C220.02 35.3712 219.856 34.5833 219.856 33.6818C219.856 32.7727 220.02 31.9792 220.35 31.3011C220.683 30.6231 221.145 30.0966 221.736 29.7216C222.331 29.3466 223.022 29.1591 223.81 29.1591C224.598 29.1591 225.288 29.3466 225.878 29.7216C226.473 30.0966 226.935 30.6231 227.265 31.3011C227.598 31.9792 227.765 32.7727 227.765 33.6818C227.765 34.5833 227.598 35.3712 227.265 36.0455C226.935 36.7197 226.473 37.2443 225.878 37.6193C225.288 37.9943 224.598 38.1818 223.81 38.1818ZM223.81 36.9773C224.409 36.9773 224.901 36.8239 225.288 36.517C225.674 36.2102 225.96 35.8068 226.145 35.3068C226.331 34.8068 226.424 34.2652 226.424 33.6818C226.424 33.0985 226.331 32.5549 226.145 32.0511C225.96 31.5473 225.674 31.1402 225.288 30.8295C224.901 30.5189 224.409 30.3636 223.81 30.3636C223.212 30.3636 222.719 30.5189 222.333 30.8295C221.947 31.1402 221.661 31.5473 221.475 32.0511C221.289 32.5549 221.197 33.0985 221.197 33.6818C221.197 34.2652 221.289 34.8068 221.475 35.3068C221.661 35.8068 221.947 36.2102 222.333 36.517C222.719 36.8239 223.212 36.9773 223.81 36.9773ZM233.407 29.2727V30.4091H228.884V29.2727H233.407ZM230.203 27.1818H231.543V35.5C231.543 35.8788 231.598 36.1629 231.708 36.3523C231.822 36.5379 231.966 36.6629 232.14 36.7273C232.318 36.7879 232.506 36.8182 232.703 36.8182C232.85 36.8182 232.971 36.8106 233.066 36.7955C233.161 36.7765 233.237 36.7614 233.293 36.75L233.566 37.9545C233.475 37.9886 233.348 38.0227 233.186 38.0568C233.023 38.0947 232.816 38.1136 232.566 38.1136C232.187 38.1136 231.816 38.0322 231.453 37.8693C231.093 37.7064 230.793 37.4583 230.555 37.125C230.32 36.7917 230.203 36.3712 230.203 35.8636V27.1818ZM236.753 32.75V38H235.412V26.3636H236.753V30.6364H236.866C237.071 30.1856 237.378 29.8277 237.787 29.5625C238.2 29.2936 238.749 29.1591 239.434 29.1591C240.029 29.1591 240.55 29.2784 240.997 29.517C241.444 29.7519 241.79 30.1136 242.037 30.6023C242.287 31.0871 242.412 31.7045 242.412 32.4545V38H241.071V32.5455C241.071 31.8523 240.891 31.3163 240.531 30.9375C240.175 30.5549 239.681 30.3636 239.048 30.3636C238.609 30.3636 238.215 30.4564 237.866 30.642C237.521 30.8277 237.249 31.0985 237.048 31.4545C236.851 31.8106 236.753 32.2424 236.753 32.75ZM244.665 38V29.2727H246.006V38H244.665ZM245.347 27.8182C245.085 27.8182 244.86 27.7292 244.67 27.5511C244.485 27.3731 244.392 27.1591 244.392 26.9091C244.392 26.6591 244.485 26.4451 244.67 26.267C244.86 26.089 245.085 26 245.347 26C245.608 26 245.831 26.089 246.017 26.267C246.206 26.4451 246.301 26.6591 246.301 26.9091C246.301 27.1591 246.206 27.3731 246.017 27.5511C245.831 27.7292 245.608 27.8182 245.347 27.8182ZM249.603 32.75V38H248.262V29.2727H249.557V30.6364H249.671C249.875 30.1932 250.186 29.8371 250.603 29.5682C251.019 29.2955 251.557 29.1591 252.216 29.1591C252.807 29.1591 253.324 29.2803 253.767 29.5227C254.211 29.7614 254.555 30.125 254.801 30.6136C255.048 31.0985 255.171 31.7121 255.171 32.4545V38H253.83V32.5455C253.83 31.8598 253.652 31.3258 253.296 30.9432C252.94 30.5568 252.451 30.3636 251.83 30.3636C251.402 30.3636 251.019 30.4564 250.682 30.642C250.349 30.8277 250.086 31.0985 249.892 31.4545C249.699 31.8106 249.603 32.2424 249.603 32.75ZM260.944 41.4545C260.296 41.4545 259.739 41.3712 259.273 41.2045C258.807 41.0417 258.419 40.8258 258.109 40.5568C257.802 40.2917 257.557 40.0076 257.376 39.7045L258.444 38.9545C258.565 39.1136 258.718 39.2955 258.904 39.5C259.09 39.7083 259.343 39.8883 259.665 40.0398C259.991 40.1951 260.417 40.2727 260.944 40.2727C261.648 40.2727 262.23 40.1023 262.688 39.7614C263.146 39.4205 263.376 38.8864 263.376 38.1591V36.3864H263.262C263.163 36.5455 263.023 36.7424 262.841 36.9773C262.663 37.2083 262.406 37.4148 262.069 37.5966C261.735 37.7746 261.285 37.8636 260.716 37.8636C260.012 37.8636 259.379 37.697 258.819 37.3636C258.262 37.0303 257.821 36.5455 257.495 35.9091C257.173 35.2727 257.012 34.5 257.012 33.5909C257.012 32.697 257.169 31.9186 257.484 31.2557C257.798 30.589 258.235 30.0739 258.796 29.7102C259.357 29.3428 260.004 29.1591 260.739 29.1591C261.307 29.1591 261.758 29.2538 262.091 29.4432C262.429 29.6288 262.686 29.8409 262.864 30.0795C263.046 30.3144 263.186 30.5076 263.285 30.6591H263.421V29.2727H264.716V38.25C264.716 39 264.546 39.6098 264.205 40.0795C263.868 40.553 263.413 40.8996 262.841 41.1193C262.273 41.3428 261.641 41.4545 260.944 41.4545ZM260.898 36.6591C261.436 36.6591 261.891 36.536 262.262 36.2898C262.633 36.0436 262.915 35.6894 263.109 35.2273C263.302 34.7652 263.398 34.2121 263.398 33.5682C263.398 32.9394 263.304 32.3845 263.114 31.9034C262.925 31.4223 262.645 31.0455 262.273 30.7727C261.902 30.5 261.444 30.3636 260.898 30.3636C260.33 30.3636 259.857 30.5076 259.478 30.7955C259.103 31.0833 258.821 31.4697 258.631 31.9545C258.446 32.4394 258.353 32.9773 258.353 33.5682C258.353 34.1742 258.448 34.7102 258.637 35.1761C258.83 35.6383 259.114 36.0019 259.489 36.267C259.868 36.5284 260.338 36.6591 260.898 36.6591ZM273.153 31.2273L271.948 31.5682C271.873 31.3674 271.761 31.1723 271.613 30.983C271.469 30.7898 271.272 30.6307 271.022 30.5057C270.772 30.3807 270.452 30.3182 270.062 30.3182C269.528 30.3182 269.083 30.4413 268.727 30.6875C268.374 30.9299 268.198 31.2386 268.198 31.6136C268.198 31.947 268.32 32.2102 268.562 32.4034C268.804 32.5966 269.183 32.7576 269.698 32.8864L270.994 33.2045C271.774 33.3939 272.355 33.6837 272.738 34.0739C273.121 34.4602 273.312 34.9583 273.312 35.5682C273.312 36.0682 273.168 36.5152 272.88 36.9091C272.596 37.303 272.198 37.6136 271.687 37.8409C271.176 38.0682 270.581 38.1818 269.903 38.1818C269.013 38.1818 268.276 37.9886 267.693 37.6023C267.109 37.2159 266.74 36.6515 266.585 35.9091L267.857 35.5909C267.979 36.0606 268.208 36.4129 268.545 36.6477C268.886 36.8826 269.331 37 269.88 37C270.505 37 271.001 36.8674 271.369 36.6023C271.74 36.3333 271.926 36.0114 271.926 35.6364C271.926 35.3333 271.82 35.0795 271.607 34.875C271.395 34.6667 271.07 34.5114 270.63 34.4091L269.176 34.0682C268.376 33.8788 267.789 33.5852 267.414 33.1875C267.043 32.786 266.857 32.2841 266.857 31.6818C266.857 31.1894 266.996 30.7538 267.272 30.375C267.552 29.9962 267.933 29.6989 268.414 29.483C268.899 29.267 269.448 29.1591 270.062 29.1591C270.926 29.1591 271.604 29.3485 272.096 29.7273C272.592 30.1061 272.945 30.6061 273.153 31.2273Z" fill="#8B96A5"/>
<path d="M186.088 27L184.913 28.175L188.729 32L184.913 35.825L186.088 37L191.088 32L186.088 27Z" fill="#8B96A5"/>
<path d="M286.088 27L284.913 28.175L288.729 32L284.913 35.825L286.088 37L291.088 32L286.088 27Z" fill="#8B96A5"/>
<path d="M400.087 27L398.912 28.175L402.729 32L398.912 35.825L400.087 37L405.087 32L400.087 27Z" fill="#8B96A5"/>
<path d="M305.409 26.3636H307.091L311.045 36.0227H311.182L315.136 26.3636H316.818V38H315.5V29.1591H315.386L311.75 38H310.477L306.841 29.1591H306.727V38H305.409V26.3636ZM322.921 38.1818C322.08 38.1818 321.354 37.9962 320.745 37.625C320.139 37.25 319.671 36.7273 319.341 36.0568C319.015 35.3826 318.853 34.5985 318.853 33.7045C318.853 32.8106 319.015 32.0227 319.341 31.3409C319.671 30.6553 320.129 30.1212 320.716 29.7386C321.307 29.3523 321.996 29.1591 322.784 29.1591C323.239 29.1591 323.688 29.2348 324.131 29.3864C324.574 29.5379 324.978 29.7841 325.341 30.125C325.705 30.4621 325.995 30.9091 326.211 31.4659C326.426 32.0227 326.534 32.7083 326.534 33.5227V34.0909H319.807V32.9318H325.171C325.171 32.4394 325.072 32 324.875 31.6136C324.682 31.2273 324.406 30.9223 324.046 30.6989C323.69 30.4754 323.269 30.3636 322.784 30.3636C322.25 30.3636 321.788 30.4962 321.398 30.7614C321.012 31.0227 320.714 31.3636 320.506 31.7841C320.298 32.2045 320.193 32.6553 320.193 33.1364V33.9091C320.193 34.5682 320.307 35.1269 320.534 35.5852C320.765 36.0398 321.086 36.3864 321.495 36.625C321.904 36.8598 322.379 36.9773 322.921 36.9773C323.273 36.9773 323.591 36.928 323.875 36.8295C324.163 36.7273 324.411 36.5758 324.62 36.375C324.828 36.1705 324.989 35.9167 325.103 35.6136L326.398 35.9773C326.262 36.4167 326.032 36.803 325.711 37.1364C325.389 37.4659 324.991 37.7235 324.517 37.9091C324.044 38.0909 323.512 38.1818 322.921 38.1818ZM329.715 32.75V38H328.374V29.2727H329.67V30.6364H329.783C329.988 30.1932 330.298 29.8371 330.715 29.5682C331.132 29.2955 331.67 29.1591 332.329 29.1591C332.92 29.1591 333.437 29.2803 333.88 29.5227C334.323 29.7614 334.668 30.125 334.914 30.6136C335.16 31.0985 335.283 31.7121 335.283 32.4545V38H333.942V32.5455C333.942 31.8598 333.764 31.3258 333.408 30.9432C333.052 30.5568 332.564 30.3636 331.942 30.3636C331.514 30.3636 331.132 30.4564 330.795 30.642C330.461 30.8277 330.198 31.0985 330.005 31.4545C329.812 31.8106 329.715 32.2424 329.715 32.75ZM338.715 26.3636V27.3864C338.715 27.697 338.659 28.0284 338.545 28.3807C338.435 28.7292 338.272 29.0682 338.056 29.3977C337.844 29.7235 337.587 30.0076 337.284 30.25L336.556 29.6591C336.795 29.3182 337.001 28.964 337.176 28.5966C337.354 28.2254 337.443 27.8295 337.443 27.4091V26.3636H338.715ZM345.234 31.2273L344.03 31.5682C343.954 31.3674 343.842 31.1723 343.694 30.983C343.55 30.7898 343.353 30.6307 343.103 30.5057C342.853 30.3807 342.533 30.3182 342.143 30.3182C341.609 30.3182 341.164 30.4413 340.808 30.6875C340.456 30.9299 340.28 31.2386 340.28 31.6136C340.28 31.947 340.401 32.2102 340.643 32.4034C340.886 32.5966 341.264 32.7576 341.78 32.8864L343.075 33.2045C343.855 33.3939 344.437 33.6837 344.819 34.0739C345.202 34.4602 345.393 34.9583 345.393 35.5682C345.393 36.0682 345.249 36.5152 344.961 36.9091C344.677 37.303 344.28 37.6136 343.768 37.8409C343.257 38.0682 342.662 38.1818 341.984 38.1818C341.094 38.1818 340.357 37.9886 339.774 37.6023C339.191 37.2159 338.821 36.6515 338.666 35.9091L339.939 35.5909C340.06 36.0606 340.289 36.4129 340.626 36.6477C340.967 36.8826 341.412 37 341.961 37C342.586 37 343.083 36.8674 343.45 36.6023C343.821 36.3333 344.007 36.0114 344.007 35.6364C344.007 35.3333 343.901 35.0795 343.689 34.875C343.477 34.6667 343.151 34.5114 342.711 34.4091L341.257 34.0682C340.458 33.8788 339.87 33.5852 339.495 33.1875C339.124 32.786 338.939 32.2841 338.939 31.6818C338.939 31.1894 339.077 30.7538 339.353 30.375C339.634 29.9962 340.014 29.6989 340.495 29.483C340.98 29.267 341.53 29.1591 342.143 29.1591C343.007 29.1591 343.685 29.3485 344.177 29.7273C344.673 30.1061 345.026 30.6061 345.234 31.2273ZM353.489 38L350.83 29.2727H352.239L354.125 35.9545H354.216L356.08 29.2727H357.512L359.353 35.9318H359.443L361.33 29.2727H362.739L360.08 38H358.762L356.853 31.2955H356.716L354.807 38H353.489ZM367.674 38.1818C366.833 38.1818 366.108 37.9962 365.498 37.625C364.892 37.25 364.424 36.7273 364.094 36.0568C363.769 35.3826 363.606 34.5985 363.606 33.7045C363.606 32.8106 363.769 32.0227 364.094 31.3409C364.424 30.6553 364.882 30.1212 365.469 29.7386C366.06 29.3523 366.75 29.1591 367.537 29.1591C367.992 29.1591 368.441 29.2348 368.884 29.3864C369.327 29.5379 369.731 29.7841 370.094 30.125C370.458 30.4621 370.748 30.9091 370.964 31.4659C371.18 32.0227 371.287 32.7083 371.287 33.5227V34.0909H364.56V32.9318H369.924C369.924 32.4394 369.825 32 369.628 31.6136C369.435 31.2273 369.159 30.9223 368.799 30.6989C368.443 30.4754 368.022 30.3636 367.537 30.3636C367.003 30.3636 366.541 30.4962 366.151 30.7614C365.765 31.0227 365.467 31.3636 365.259 31.7841C365.051 32.2045 364.947 32.6553 364.947 33.1364V33.9091C364.947 34.5682 365.06 35.1269 365.287 35.5852C365.519 36.0398 365.839 36.3864 366.248 36.625C366.657 36.8598 367.132 36.9773 367.674 36.9773C368.026 36.9773 368.344 36.928 368.628 36.8295C368.916 36.7273 369.164 36.5758 369.373 36.375C369.581 36.1705 369.742 35.9167 369.856 35.6136L371.151 35.9773C371.015 36.4167 370.786 36.803 370.464 37.1364C370.142 37.4659 369.744 37.7235 369.27 37.9091C368.797 38.0909 368.265 38.1818 367.674 38.1818ZM375.695 38.2045C375.142 38.2045 374.641 38.1004 374.19 37.892C373.739 37.6799 373.381 37.375 373.116 36.9773C372.851 36.5758 372.718 36.0909 372.718 35.5227C372.718 35.0227 372.817 34.6174 373.014 34.3068C373.211 33.9924 373.474 33.7462 373.803 33.5682C374.133 33.3902 374.497 33.2576 374.894 33.1705C375.296 33.0795 375.699 33.0076 376.105 32.9545C376.635 32.8864 377.065 32.8352 377.394 32.8011C377.728 32.7633 377.97 32.7008 378.122 32.6136C378.277 32.5265 378.355 32.375 378.355 32.1591V32.1136C378.355 31.553 378.201 31.1174 377.894 30.8068C377.591 30.4962 377.131 30.3409 376.514 30.3409C375.873 30.3409 375.372 30.4811 375.008 30.7614C374.644 31.0417 374.389 31.3409 374.241 31.6591L372.968 31.2045C373.195 30.6742 373.498 30.2614 373.877 29.9659C374.26 29.6667 374.677 29.4583 375.127 29.3409C375.582 29.2197 376.029 29.1591 376.468 29.1591C376.748 29.1591 377.07 29.1932 377.434 29.2614C377.802 29.3258 378.156 29.4602 378.497 29.6648C378.841 29.8693 379.127 30.178 379.355 30.5909C379.582 31.0038 379.695 31.5568 379.695 32.25V38H378.355V36.8182H378.286C378.195 37.0076 378.044 37.2102 377.832 37.4261C377.62 37.642 377.338 37.8258 376.985 37.9773C376.633 38.1288 376.203 38.2045 375.695 38.2045ZM375.9 37C376.43 37 376.877 36.8958 377.241 36.6875C377.608 36.4792 377.885 36.2102 378.07 35.8807C378.26 35.5511 378.355 35.2045 378.355 34.8409V33.6136C378.298 33.6818 378.173 33.7443 377.98 33.8011C377.79 33.8542 377.57 33.9015 377.32 33.9432C377.074 33.9811 376.834 34.0152 376.599 34.0455C376.368 34.072 376.18 34.0947 376.036 34.1136C375.688 34.1591 375.362 34.233 375.059 34.3352C374.76 34.4337 374.517 34.5833 374.332 34.7841C374.15 34.9811 374.059 35.25 374.059 35.5909C374.059 36.0568 374.231 36.4091 374.576 36.6477C374.925 36.8826 375.366 37 375.9 37ZM381.943 38V29.2727H383.238V30.5909H383.329C383.488 30.1591 383.776 29.8087 384.193 29.5398C384.61 29.2708 385.079 29.1364 385.602 29.1364C385.7 29.1364 385.824 29.1383 385.971 29.142C386.119 29.1458 386.231 29.1515 386.307 29.1591V30.5227C386.261 30.5114 386.157 30.4943 385.994 30.4716C385.835 30.4451 385.666 30.4318 385.488 30.4318C385.064 30.4318 384.685 30.5208 384.352 30.6989C384.022 30.8731 383.761 31.1155 383.568 31.4261C383.379 31.733 383.284 32.0833 383.284 32.4773V38H381.943Z" fill="#8B96A5"/>
<path d="M426.773 29.2727C426.705 28.697 426.428 28.25 425.943 27.9318C425.458 27.6136 424.864 27.4545 424.159 27.4545C423.644 27.4545 423.193 27.5379 422.807 27.7045C422.424 27.8712 422.125 28.1004 421.909 28.392C421.697 28.6837 421.591 29.0152 421.591 29.3864C421.591 29.697 421.665 29.964 421.812 30.1875C421.964 30.4072 422.157 30.5909 422.392 30.7386C422.627 30.8826 422.873 31.0019 423.131 31.0966C423.388 31.1875 423.625 31.2614 423.841 31.3182L425.023 31.6364C425.326 31.7159 425.663 31.8258 426.034 31.9659C426.409 32.1061 426.767 32.2973 427.108 32.5398C427.453 32.7784 427.737 33.0852 427.96 33.4602C428.184 33.8352 428.295 34.2955 428.295 34.8409C428.295 35.4697 428.131 36.0379 427.801 36.5455C427.475 37.053 426.998 37.4564 426.369 37.7557C425.744 38.0549 424.985 38.2045 424.091 38.2045C423.258 38.2045 422.536 38.0701 421.926 37.8011C421.32 37.5322 420.843 37.1572 420.494 36.6761C420.15 36.1951 419.955 35.6364 419.909 35H421.364C421.402 35.4394 421.549 35.803 421.807 36.0909C422.068 36.375 422.398 36.5871 422.795 36.7273C423.197 36.8636 423.629 36.9318 424.091 36.9318C424.629 36.9318 425.112 36.8447 425.54 36.6705C425.968 36.4924 426.307 36.2462 426.557 35.9318C426.807 35.6136 426.932 35.2424 426.932 34.8182C426.932 34.4318 426.824 34.1174 426.608 33.875C426.392 33.6326 426.108 33.4356 425.756 33.2841C425.403 33.1326 425.023 33 424.614 32.8864L423.182 32.4773C422.273 32.2159 421.553 31.8428 421.023 31.358C420.492 30.8731 420.227 30.2386 420.227 29.4545C420.227 28.803 420.403 28.2348 420.756 27.75C421.112 27.2614 421.589 26.8826 422.188 26.6136C422.79 26.3409 423.462 26.2045 424.205 26.2045C424.955 26.2045 425.621 26.339 426.205 26.608C426.788 26.8731 427.25 27.2367 427.591 27.6989C427.936 28.161 428.117 28.6856 428.136 29.2727H426.773ZM435.73 34.4318V29.2727H437.071V38H435.73V36.5227H435.639C435.435 36.9659 435.117 37.3428 434.685 37.6534C434.253 37.9602 433.708 38.1136 433.049 38.1136C432.503 38.1136 432.018 37.9943 431.594 37.7557C431.17 37.5133 430.836 37.1496 430.594 36.6648C430.352 36.1761 430.23 35.5606 430.23 34.8182V29.2727H431.571V34.7273C431.571 35.3636 431.749 35.8712 432.105 36.25C432.465 36.6288 432.924 36.8182 433.48 36.8182C433.814 36.8182 434.153 36.733 434.497 36.5625C434.846 36.392 435.138 36.1307 435.372 35.7784C435.611 35.4261 435.73 34.9773 435.73 34.4318ZM439.327 38V29.2727H440.623V30.6364H440.736C440.918 30.1705 441.212 29.8087 441.617 29.5511C442.022 29.2898 442.509 29.1591 443.077 29.1591C443.653 29.1591 444.132 29.2898 444.515 29.5511C444.901 29.8087 445.202 30.1705 445.418 30.6364H445.509C445.733 30.1856 446.068 29.8277 446.515 29.5625C446.962 29.2936 447.498 29.1591 448.123 29.1591C448.903 29.1591 449.541 29.4034 450.038 29.892C450.534 30.3769 450.782 31.1326 450.782 32.1591V38H449.441V32.1591C449.441 31.5152 449.265 31.0549 448.913 30.7784C448.56 30.5019 448.145 30.3636 447.668 30.3636C447.055 30.3636 446.579 30.5492 446.242 30.9205C445.905 31.2879 445.736 31.7538 445.736 32.3182V38H444.373V32.0227C444.373 31.5265 444.212 31.1269 443.89 30.8239C443.568 30.517 443.153 30.3636 442.645 30.3636C442.297 30.3636 441.971 30.4564 441.668 30.642C441.369 30.8277 441.127 31.0852 440.941 31.4148C440.759 31.7405 440.668 32.1174 440.668 32.5455V38H439.327ZM453.034 38V29.2727H454.329V30.6364H454.443C454.624 30.1705 454.918 29.8087 455.323 29.5511C455.729 29.2898 456.215 29.1591 456.784 29.1591C457.359 29.1591 457.838 29.2898 458.221 29.5511C458.607 29.8087 458.909 30.1705 459.124 30.6364H459.215C459.439 30.1856 459.774 29.8277 460.221 29.5625C460.668 29.2936 461.204 29.1591 461.829 29.1591C462.609 29.1591 463.248 29.4034 463.744 29.892C464.24 30.3769 464.488 31.1326 464.488 32.1591V38H463.147V32.1591C463.147 31.5152 462.971 31.0549 462.619 30.7784C462.266 30.5019 461.852 30.3636 461.374 30.3636C460.761 30.3636 460.285 30.5492 459.948 30.9205C459.611 31.2879 459.443 31.7538 459.443 32.3182V38H458.079V32.0227C458.079 31.5265 457.918 31.1269 457.596 30.8239C457.274 30.517 456.859 30.3636 456.352 30.3636C456.003 30.3636 455.677 30.4564 455.374 30.642C455.075 30.8277 454.833 31.0852 454.647 31.4148C454.465 31.7405 454.374 32.1174 454.374 32.5455V38H453.034ZM470.399 38.1818C469.558 38.1818 468.833 37.9962 468.223 37.625C467.617 37.25 467.149 36.7273 466.819 36.0568C466.494 35.3826 466.331 34.5985 466.331 33.7045C466.331 32.8106 466.494 32.0227 466.819 31.3409C467.149 30.6553 467.607 30.1212 468.194 29.7386C468.785 29.3523 469.475 29.1591 470.263 29.1591C470.717 29.1591 471.166 29.2348 471.609 29.3864C472.052 29.5379 472.456 29.7841 472.819 30.125C473.183 30.4621 473.473 30.9091 473.689 31.4659C473.905 32.0227 474.013 32.7083 474.013 33.5227V34.0909H467.285V32.9318H472.649C472.649 32.4394 472.55 32 472.353 31.6136C472.16 31.2273 471.884 30.9223 471.524 30.6989C471.168 30.4754 470.747 30.3636 470.263 30.3636C469.728 30.3636 469.266 30.4962 468.876 30.7614C468.49 31.0227 468.192 31.3636 467.984 31.7841C467.776 32.2045 467.672 32.6553 467.672 33.1364V33.9091C467.672 34.5682 467.785 35.1269 468.013 35.5852C468.244 36.0398 468.564 36.3864 468.973 36.625C469.382 36.8598 469.857 36.9773 470.399 36.9773C470.751 36.9773 471.069 36.928 471.353 36.8295C471.641 36.7273 471.889 36.5758 472.098 36.375C472.306 36.1705 472.467 35.9167 472.581 35.6136L473.876 35.9773C473.74 36.4167 473.511 36.803 473.189 37.1364C472.867 37.4659 472.469 37.7235 471.995 37.9091C471.522 38.0909 470.99 38.1818 470.399 38.1818ZM475.852 38V29.2727H477.148V30.5909H477.239C477.398 30.1591 477.686 29.8087 478.102 29.5398C478.519 29.2708 478.989 29.1364 479.511 29.1364C479.61 29.1364 479.733 29.1383 479.881 29.142C480.028 29.1458 480.14 29.1515 480.216 29.1591V30.5227C480.17 30.5114 480.066 30.4943 479.903 30.4716C479.744 30.4451 479.576 30.4318 479.398 30.4318C478.973 30.4318 478.595 30.5208 478.261 30.6989C477.932 30.8731 477.67 31.1155 477.477 31.4261C477.288 31.733 477.193 32.0833 477.193 32.4773V38H475.852ZM489.451 38.1818C488.633 38.1818 487.928 37.9886 487.337 37.6023C486.746 37.2159 486.292 36.6837 485.974 36.0057C485.655 35.3277 485.496 34.553 485.496 33.6818C485.496 32.7955 485.659 32.0133 485.985 31.3352C486.314 30.6534 486.773 30.1212 487.36 29.7386C487.951 29.3523 488.64 29.1591 489.428 29.1591C490.042 29.1591 490.595 29.2727 491.087 29.5C491.58 29.7273 491.983 30.0455 492.297 30.4545C492.612 30.8636 492.807 31.3409 492.883 31.8864H491.542C491.439 31.4886 491.212 31.1364 490.86 30.8295C490.511 30.5189 490.042 30.3636 489.451 30.3636C488.928 30.3636 488.47 30.5 488.076 30.7727C487.686 31.0417 487.381 31.4223 487.161 31.9148C486.945 32.4034 486.837 32.9773 486.837 33.6364C486.837 34.3106 486.943 34.8977 487.155 35.3977C487.371 35.8977 487.674 36.286 488.064 36.5625C488.458 36.839 488.921 36.9773 489.451 36.9773C489.799 36.9773 490.116 36.9167 490.4 36.7955C490.684 36.6742 490.924 36.5 491.121 36.2727C491.318 36.0455 491.458 35.7727 491.542 35.4545H492.883C492.807 35.9697 492.619 36.4337 492.32 36.8466C492.025 37.2557 491.633 37.5814 491.144 37.8239C490.659 38.0625 490.095 38.1818 489.451 38.1818ZM495.984 26.3636V38H494.643V26.3636H495.984ZM501.785 38.1818C500.997 38.1818 500.306 37.9943 499.711 37.6193C499.12 37.2443 498.658 36.7197 498.325 36.0455C497.995 35.3712 497.831 34.5833 497.831 33.6818C497.831 32.7727 497.995 31.9792 498.325 31.3011C498.658 30.6231 499.12 30.0966 499.711 29.7216C500.306 29.3466 500.997 29.1591 501.785 29.1591C502.573 29.1591 503.262 29.3466 503.853 29.7216C504.448 30.0966 504.91 30.6231 505.24 31.3011C505.573 31.9792 505.74 32.7727 505.74 33.6818C505.74 34.5833 505.573 35.3712 505.24 36.0455C504.91 36.7197 504.448 37.2443 503.853 37.6193C503.262 37.9943 502.573 38.1818 501.785 38.1818ZM501.785 36.9773C502.384 36.9773 502.876 36.8239 503.262 36.517C503.649 36.2102 503.935 35.8068 504.12 35.3068C504.306 34.8068 504.399 34.2652 504.399 33.6818C504.399 33.0985 504.306 32.5549 504.12 32.0511C503.935 31.5473 503.649 31.1402 503.262 30.8295C502.876 30.5189 502.384 30.3636 501.785 30.3636C501.187 30.3636 500.694 30.5189 500.308 30.8295C499.922 31.1402 499.636 31.5473 499.45 32.0511C499.264 32.5549 499.172 33.0985 499.172 33.6818C499.172 34.2652 499.264 34.8068 499.45 35.3068C499.636 35.8068 499.922 36.2102 500.308 36.517C500.694 36.8239 501.187 36.9773 501.785 36.9773ZM511.382 29.2727V30.4091H506.859V29.2727H511.382ZM508.178 27.1818H509.518V35.5C509.518 35.8788 509.573 36.1629 509.683 36.3523C509.797 36.5379 509.941 36.6629 510.115 36.7273C510.293 36.7879 510.481 36.8182 510.678 36.8182C510.825 36.8182 510.946 36.8106 511.041 36.7955C511.136 36.7765 511.212 36.7614 511.268 36.75L511.541 37.9545C511.45 37.9886 511.323 38.0227 511.161 38.0568C510.998 38.0947 510.791 38.1136 510.541 38.1136C510.162 38.1136 509.791 38.0322 509.428 37.8693C509.068 37.7064 508.768 37.4583 508.53 37.125C508.295 36.7917 508.178 36.3712 508.178 35.8636V27.1818ZM514.728 32.75V38H513.387V26.3636H514.728V30.6364H514.841C515.046 30.1856 515.353 29.8277 515.762 29.5625C516.175 29.2936 516.724 29.1591 517.409 29.1591C518.004 29.1591 518.525 29.2784 518.972 29.517C519.419 29.7519 519.765 30.1136 520.012 30.6023C520.262 31.0871 520.387 31.7045 520.387 32.4545V38H519.046V32.5455C519.046 31.8523 518.866 31.3163 518.506 30.9375C518.15 30.5549 517.656 30.3636 517.023 30.3636C516.584 30.3636 516.19 30.4564 515.841 30.642C515.496 30.8277 515.224 31.0985 515.023 31.4545C514.826 31.8106 514.728 32.2424 514.728 32.75ZM522.64 38V29.2727H523.981V38H522.64ZM523.322 27.8182C523.06 27.8182 522.835 27.7292 522.645 27.5511C522.46 27.3731 522.367 27.1591 522.367 26.9091C522.367 26.6591 522.46 26.4451 522.645 26.267C522.835 26.089 523.06 26 523.322 26C523.583 26 523.806 26.089 523.992 26.267C524.181 26.4451 524.276 26.6591 524.276 26.9091C524.276 27.1591 524.181 27.3731 523.992 27.5511C523.806 27.7292 523.583 27.8182 523.322 27.8182ZM527.578 32.75V38H526.237V29.2727H527.532V30.6364H527.646C527.85 30.1932 528.161 29.8371 528.578 29.5682C528.994 29.2955 529.532 29.1591 530.191 29.1591C530.782 29.1591 531.299 29.2803 531.742 29.5227C532.186 29.7614 532.53 30.125 532.776 30.6136C533.023 31.0985 533.146 31.7121 533.146 32.4545V38H531.805V32.5455C531.805 31.8598 531.627 31.3258 531.271 30.9432C530.915 30.5568 530.426 30.3636 529.805 30.3636C529.377 30.3636 528.994 30.4564 528.657 30.642C528.324 30.8277 528.061 31.0985 527.867 31.4545C527.674 31.8106 527.578 32.2424 527.578 32.75ZM538.919 41.4545C538.271 41.4545 537.714 41.3712 537.248 41.2045C536.782 41.0417 536.394 40.8258 536.084 40.5568C535.777 40.2917 535.532 40.0076 535.351 39.7045L536.419 38.9545C536.54 39.1136 536.693 39.2955 536.879 39.5C537.065 39.7083 537.318 39.8883 537.64 40.0398C537.966 40.1951 538.392 40.2727 538.919 40.2727C539.623 40.2727 540.205 40.1023 540.663 39.7614C541.121 39.4205 541.351 38.8864 541.351 38.1591V36.3864H541.237C541.138 36.5455 540.998 36.7424 540.816 36.9773C540.638 37.2083 540.381 37.4148 540.044 37.5966C539.71 37.7746 539.26 37.8636 538.691 37.8636C537.987 37.8636 537.354 37.697 536.794 37.3636C536.237 37.0303 535.796 36.5455 535.47 35.9091C535.148 35.2727 534.987 34.5 534.987 33.5909C534.987 32.697 535.144 31.9186 535.459 31.2557C535.773 30.589 536.21 30.0739 536.771 29.7102C537.332 29.3428 537.979 29.1591 538.714 29.1591C539.282 29.1591 539.733 29.2538 540.066 29.4432C540.404 29.6288 540.661 29.8409 540.839 30.0795C541.021 30.3144 541.161 30.5076 541.26 30.6591H541.396V29.2727H542.691V38.25C542.691 39 542.521 39.6098 542.18 40.0795C541.843 40.553 541.388 40.8996 540.816 41.1193C540.248 41.3428 539.616 41.4545 538.919 41.4545ZM538.873 36.6591C539.411 36.6591 539.866 36.536 540.237 36.2898C540.608 36.0436 540.89 35.6894 541.084 35.2273C541.277 34.7652 541.373 34.2121 541.373 33.5682C541.373 32.9394 541.279 32.3845 541.089 31.9034C540.9 31.4223 540.62 31.0455 540.248 30.7727C539.877 30.5 539.419 30.3636 538.873 30.3636C538.305 30.3636 537.832 30.5076 537.453 30.7955C537.078 31.0833 536.796 31.4697 536.606 31.9545C536.421 32.4394 536.328 32.9773 536.328 33.5682C536.328 34.1742 536.423 34.7102 536.612 35.1761C536.805 35.6383 537.089 36.0019 537.464 36.267C537.843 36.5284 538.313 36.6591 538.873 36.6591Z" fill="#8B96A5"/>
</svg>
